<svg xmlns="http://www.w3.org/2000/svg" viewBox="0 0 152.62 96.96"><defs><style>.cls-1{fill:#4b82d7;}.cls-2{fill:#e7e7e7;}</style></defs><g id="Слой_2" data-name="Слой 2"><g id="Layer_1" data-name="Layer 1"><path d="M101.72,14.15C89,2.48,76-2.75,60.38,1.42S36.14,16.65,30.94,33.11a43.13,43.13,0,0,1-10.22,17l49-13.67,48.57-13A39.78,39.78,0,0,1,101.72,14.15Z"/><path class="cls-1" d="M152.21,38.1C148,22.3,110.52,18.57,68.6,29.69S-3.86,62.89.4,78.78c2.94,11,21.86,16.21,47.15,14.6a6.73,6.73,0,0,1-2.1-3.32c-2.3-8.61,13-17.51,33.23-22.92s37.8-5.11,40.05,3.28a6.69,6.69,0,0,1-.16,3.93C141.36,63.08,155.19,49.13,152.21,38.1Z"/><path class="cls-2" d="M85.65,93.3c20.31-5.44,35.49-14.59,33.23-23s-20-8.74-40.28-3.3S43.1,81.54,45.37,90,65.33,98.74,85.65,93.3Z"/></g></g></svg>